<svg width="48" height="48" viewBox="0 0 48 48" fill="none" xmlns="http://www.w3.org/2000/svg">
<path fill-rule="evenodd" clip-rule="evenodd" d="M7.91316 -0.00819397H39.5458L39.9562 0.000278473L40.3554 0.0341644L40.7532 0.0849915L41.1426 0.154182L41.525 0.244549L41.9019 0.35186L42.269 0.477528L42.6277 0.621548L42.978 0.781101L43.3186 0.9576L43.6508 1.15245L43.9718 1.36002L44.2803 1.5817L44.579 1.82173L44.8679 2.07448L45.1401 2.33852L45.4039 2.61668L45.651 2.90472L45.8883 3.2083L46.1074 3.52317L46.3112 3.84793L46.501 4.18398L46.6769 4.5285L46.8374 4.88291L46.9756 5.24579L47.1012 5.61714L47.2073 5.99837L47.2966 6.38526L47.365 6.7792L47.4152 7.17738L47.4473 7.58545L47.4571 7.99774V40.0031L47.4473 40.4142L47.4152 40.8193L47.365 41.2214L47.2966 41.6144L47.2073 42.0015L47.1012 42.3825L46.9756 42.7516L46.8374 43.1146L46.6769 43.4717L46.501 43.8138L46.3112 44.1499L46.1074 44.4739L45.8883 44.7889L45.651 45.089L45.4039 45.38L45.1401 45.659L44.8679 45.923L44.579 46.1751L44.2803 46.4121L43.9718 46.6342L43.6508 46.8412L43.3186 47.0332L42.978 47.2103L42.6277 47.3723L42.269 47.5133L41.9019 47.6393L41.525 47.7473L41.1426 47.8374L40.7532 47.9064L40.3554 47.9574L39.9562 47.9904L39.5458 47.9994H7.91316L7.50377 47.9904L7.10346 47.9574L6.70594 47.9064L6.31736 47.8374L5.93184 47.7473L5.55805 47.6393L5.19026 47.5133L4.8314 47.3723L4.47841 47.2103L4.13742 47.0332L3.80816 46.8412L3.48489 46.6342L3.17642 46.4121L2.87675 46.1751L2.58908 45.923L2.3162 45.659L2.05226 45.38L1.80604 45.089L1.57169 44.7889L1.34934 44.4739L1.14465 44.1499L0.954824 43.8138L0.779821 43.4717L0.619654 43.1146L0.480257 42.7516L0.355684 42.3825L0.248906 42.0015L0.159925 41.6144L0.0917031 41.2214L0.0412804 40.8193L0.00865399 40.4142L-0.000244141 40.0031V7.99774L0.00865399 7.58545L0.0412804 7.17738L0.0917031 6.7792L0.159925 6.38526L0.248906 5.99837L0.355684 5.61714L0.480257 5.24579L0.619654 4.88291L0.779821 4.5285L0.954824 4.18398L1.14465 3.84793L1.34934 3.52317L1.57169 3.2083L1.80604 2.90472L2.05226 2.61668L2.3162 2.33852L2.58908 2.07448L2.87675 1.82173L3.17642 1.5817L3.48489 1.36002L3.80816 1.15245L4.13742 0.9576L4.47841 0.781101L4.8314 0.621548L5.19026 0.477528L5.55805 0.35186L5.93184 0.244549L6.31736 0.154182L6.70594 0.0849915L7.10346 0.0341644L7.50377 0.000278473L7.91316 -0.00819397Z" fill="#003499"/>
<path fill-rule="evenodd" clip-rule="evenodd" d="M3.95343 39.9971H7.64319V23.9923H3.95343V39.9971Z" fill="#FFFF01"/>
<path fill-rule="evenodd" clip-rule="evenodd" d="M24.1766 27.6526H23.9658L23.7578 27.6596L23.5526 27.6681L23.3544 27.6808L23.159 27.6921L22.9664 27.7105L22.7766 27.7317L22.5895 27.7528L22.4081 27.7797L22.2308 27.8065L22.055 27.8361L21.8833 27.8686L21.7172 27.9025L21.5539 27.9378L21.3934 27.9773L21.237 28.0169L21.0849 28.0578L20.9369 28.1002L20.7946 28.1454L20.655 28.1906L20.5182 28.2357L20.3884 28.2837L20.2614 28.3318L20.1385 28.3826L20.0199 28.4306L19.9055 28.4814L19.7952 28.5323L19.6877 28.5831L19.5872 28.6339L19.4895 28.6847L19.3974 28.737L19.3081 28.7878L20.0032 31.1458L20.0827 31.0978L20.1665 31.0498L20.2516 31.0018L20.3409 30.9566L20.4331 30.9114L20.528 30.8663L20.6257 30.8211L20.7262 30.7801L20.8309 30.7378L20.9369 30.6954L21.0444 30.6531L21.1533 30.6149L21.2636 30.5782L21.3766 30.5401L21.4911 30.5034L21.6069 30.4709L21.7256 30.437L21.8442 30.4074L21.9656 30.3777L22.0843 30.3509L22.2071 30.3241L22.3313 30.3001L22.4528 30.2789L22.577 30.2577L22.6984 30.2393L22.824 30.2252L22.9483 30.2097L23.0697 30.2012L23.1939 30.1913L23.3154 30.1829L23.441 30.18H23.5624L23.7578 30.1829L23.9476 30.1913L24.1249 30.2069L24.291 30.2252L24.4515 30.2521L24.6037 30.2817L24.746 30.317L24.8786 30.3565L25.007 30.4017L25.1257 30.4497L25.2346 30.5006L25.3351 30.5542L25.43 30.6121L25.5193 30.6714L25.603 30.7349L25.677 30.7971L25.7454 30.8634L25.8096 30.9326L25.8668 30.999L25.9171 31.0682L25.9618 31.1402L26.0036 31.2094L26.0385 31.2771L26.0706 31.3463L26.0985 31.4155L26.1181 31.4819L26.1362 31.5483L26.1516 31.6104L26.1628 31.6739L26.1697 31.7332L26.1753 31.7911V31.8448V31.9733L25.7328 31.9775L25.3002 31.9888L24.8786 32.01L24.4697 32.0396L24.0719 32.0792L23.6866 32.13L23.3098 32.1865L22.9483 32.2557L22.5979 32.3305L22.2629 32.418L21.9363 32.514L21.6251 32.6185L21.3292 32.7329L21.0444 32.8557L20.7708 32.9885L20.5126 33.1297L20.2698 33.2793L20.0408 33.4375L19.8245 33.6055L19.6263 33.7862L19.4393 33.9722L19.2704 34.1672L19.1154 34.3742L18.9731 34.5873L18.8516 34.8092L18.7428 35.0433L18.6506 35.2834L18.5767 35.5354L18.5166 35.7934L18.472 36.0605L18.4483 36.3395L18.4399 36.6246L18.4427 36.7956L18.4538 36.9666L18.4748 37.1376L18.5055 37.3056L18.5432 37.4736L18.5878 37.6417L18.6409 37.8067L18.7037 37.9688L18.7721 38.1278L18.8516 38.2838L18.9382 38.4369L19.0303 38.5868L19.1308 38.7338L19.2411 38.8749L19.3597 39.013L19.4839 39.145L19.6165 39.2709L19.7561 39.391L19.9055 39.5051L20.059 39.6131L20.2223 39.715L20.394 39.811L20.5726 39.898L20.7597 39.9761L20.9523 40.0481L21.1505 40.1111L21.3613 40.1652L21.5748 40.2101L21.7967 40.2461L22.0256 40.2732L22.2629 40.2881L22.5058 40.2941L22.6538 40.2911L22.8003 40.2852L22.9427 40.2791L23.085 40.2671L23.2232 40.2521L23.3628 40.2341L23.4996 40.2132L23.6364 40.1892L23.769 40.1591L23.9002 40.1291L24.03 40.0961L24.1584 40.0601L24.2826 40.0211L24.4069 39.9791L24.5283 39.931L24.6469 39.883L24.7628 39.8321L24.8786 39.778L24.9917 39.724L25.102 39.664L25.208 39.6011L25.3113 39.538L25.416 39.469L25.5137 39.4L25.6114 39.328L25.7063 39.253L25.7985 39.1749L25.885 39.0939L25.9701 39.013L26.0539 38.929L26.1334 38.8418L26.2102 38.7519H26.2521L26.6555 39.9971H29.6578V32.9038L29.6536 32.6341L29.6396 32.37L29.6187 32.1088L29.5894 31.8504L29.5503 31.5963L29.5001 31.3463L29.4442 31.1035L29.3758 30.8663L29.2949 30.6333L29.2097 30.4074L29.1079 30.1885L28.999 29.9753L28.8776 29.7692L28.7463 29.5701L28.6012 29.378L28.4476 29.1959L28.2816 29.0208L28.1001 28.857L27.9075 28.7003L27.7023 28.5534L27.486 28.4151L27.2543 28.2894L27.0114 28.1722L26.7532 28.0677L26.4838 27.9717L26.1963 27.8898L25.8962 27.8178L25.5821 27.7585L25.2527 27.7133L24.9079 27.6808L24.5492 27.6596L24.1766 27.6526ZM26.2814 35.5714V35.6434L26.2786 35.7184L26.273 35.7934L26.2674 35.8715L26.2577 35.9464L26.2493 36.0245L26.2367 36.0995L26.22 36.1745L26.213 36.2014L26.2018 36.2405L26.1935 36.2766L26.1837 36.3006L26.1725 36.3305L26.16 36.3606L26.1279 36.4355L26.0916 36.5076L26.0539 36.5796L26.012 36.6516L25.9673 36.7206L25.9199 36.7926L25.8696 36.8615L25.8166 36.9276L25.7594 36.9936L25.7035 37.0596L25.6407 37.1226L25.5765 37.1856L25.5109 37.2456L25.4425 37.3026L25.3685 37.3597L25.2946 37.4136L25.2164 37.4647L25.1396 37.5157L25.0573 37.5608L24.9735 37.6057L24.8884 37.6477L24.7991 37.6837L24.7097 37.7197L24.6148 37.7528L24.5199 37.7798L24.425 37.8067L24.3245 37.8278L24.224 37.8457L24.1221 37.8608L24.016 37.8697L23.9086 37.8787H23.8025H23.7076L23.6154 37.8728L23.5261 37.8667L23.4368 37.8547L23.3516 37.8398L23.2679 37.8248L23.1855 37.8038L23.1046 37.7798L23.0306 37.7557L22.9538 37.7257L22.8827 37.6928L22.8143 37.6568L22.7459 37.6208L22.6845 37.5787L22.6216 37.5336L22.5658 37.4887L22.5086 37.4376L22.4583 37.3837L22.4081 37.3296L22.3634 37.2696L22.3216 37.2066L22.2811 37.1437L22.2448 37.0746L22.2127 37.0056L22.1862 36.9335L22.1596 36.8556L22.1387 36.7775L22.1206 36.6966L22.1052 36.6095L22.0968 36.5225L22.0913 36.4326L22.0885 36.3395L22.0913 36.2345L22.0996 36.1355L22.115 36.0365L22.1317 35.9405L22.1555 35.8504L22.1862 35.7605L22.2211 35.6765L22.2601 35.5924L22.3048 35.5114L22.3523 35.4364L22.4053 35.3613L22.4639 35.2893L22.5267 35.2204L22.5951 35.1573L22.6663 35.0943L22.7431 35.0343L22.824 34.9743L22.9064 34.9203L22.9957 34.8692L23.0878 34.8183L23.1828 34.7703L23.2832 34.7252L23.3837 34.6833L23.4912 34.6443L23.6029 34.6052L23.7159 34.5723L23.8318 34.5393L23.9532 34.5062L24.0747 34.4792L24.2031 34.4523L24.3301 34.4283L24.4641 34.4072L24.5883 34.3892L24.7181 34.3712L24.8493 34.3563L24.9861 34.3412L25.1215 34.3323L25.2639 34.3203L25.4062 34.3142L25.5528 34.3083L25.6407 34.3051L25.7301 34.3022L25.8222 34.2992H25.9115H26.0036H26.0944H26.1865H26.2814V35.5714Z" fill="#FFFF01"/>
<path fill-rule="evenodd" clip-rule="evenodd" d="M39.8484 28.0041V35.0343V35.1393L39.8428 35.2412L39.833 35.3404L39.8191 35.4364L39.8037 35.5324L39.7828 35.6223L39.7563 35.7124L39.7242 35.7964L39.6976 35.8653L39.6641 35.9344L39.6292 36.0034L39.593 36.0725L39.5553 36.1384L39.5134 36.2075L39.4687 36.2765L39.4213 36.3425L39.371 36.4085L39.3208 36.4745L39.2636 36.5406L39.2077 36.6035L39.1491 36.6635L39.0863 36.7235L39.0207 36.7806L38.9523 36.8375L38.8811 36.8916L38.8099 36.9455L38.7332 36.9935L38.6564 37.0415L38.5726 37.0836L38.4903 37.1255L38.4037 37.1646L38.3144 37.1975L38.2237 37.2306L38.1288 37.2576L38.0297 37.2816L37.9292 37.2996L37.8287 37.3176L37.7212 37.3266L37.6151 37.3356H37.5021L37.3653 37.3327L37.2327 37.3236L37.1015 37.3087L36.9773 37.2847L36.8586 37.2576L36.7428 37.2216L36.6339 37.1796L36.5292 37.1316L36.4287 37.0806L36.3338 37.0206L36.2417 36.9545L36.1551 36.8825L36.0756 36.8076L35.996 36.7235L35.9248 36.6366L35.8564 36.5435L35.7908 36.4445L35.7322 36.3395L35.6778 36.2285L35.6247 36.1144L35.5801 35.9944L35.5354 35.8685L35.4977 35.7364L35.4642 35.6013L35.4349 35.4604L35.4084 35.3164L35.3875 35.1663L35.3693 35.0102L35.3554 34.8513L35.3456 34.6862L35.34 34.5182L35.3372 34.3442V27.9985H31.7361V35.0102V35.1873L31.7417 35.3583L31.7486 35.5234L31.757 35.6884L31.7696 35.8504L31.7835 36.0094L31.8017 36.1624L31.8198 36.3155L31.8436 36.4625L31.8673 36.6065L31.8938 36.7475L31.9259 36.8855L31.9594 37.0206L31.9943 37.1526L32.0306 37.2816L32.0711 37.4047L32.1129 37.5277L32.1604 37.6477L32.2051 37.7647L32.2553 37.8787L32.3056 37.9897L32.3558 38.0977L32.413 38.2027L32.4689 38.3078L32.5247 38.4068L32.5847 38.5057L32.6475 38.6018L32.7117 38.6918L32.7773 38.7818L32.8457 38.8689L32.9141 38.9529L32.9853 39.0338L33.0593 39.1149L33.1361 39.1899L33.2128 39.265L33.291 39.3339L33.3733 39.4029L33.4543 39.469L33.5394 39.532L33.626 39.592L33.7153 39.649L33.8032 39.703L33.8954 39.7539L33.9875 39.8051L34.0824 39.85L34.1801 39.895L34.2778 39.934L34.3797 39.9731L34.483 40.0091L34.5835 40.042L34.691 40.075L34.7942 40.102L34.9045 40.1291L35.0106 40.1531L35.1209 40.1771L35.2339 40.195L35.3456 40.2131L35.4586 40.2281L35.5745 40.2401L35.6903 40.2521L35.809 40.2611L35.9276 40.2641L36.0491 40.27H36.1705H36.278L36.3813 40.2671L36.4818 40.2641L36.5822 40.258L36.6841 40.2491L36.7818 40.2401L36.8795 40.231L36.9745 40.2161L37.0666 40.2041L37.1587 40.186L37.2508 40.171L37.3388 40.15L37.4253 40.1321L37.5118 40.1081L37.597 40.0841L37.6807 40.0601L37.8398 40.006L37.9976 39.9491L38.1455 39.8891L38.2907 39.8291L38.4303 39.763L38.5643 39.697L38.6913 39.625L38.8127 39.553L38.9286 39.4779L39.0416 39.4029L39.1491 39.325L39.2524 39.2469L39.3501 39.1659L39.4422 39.0818L39.5288 38.9978L39.6111 38.9108L39.6907 38.8268L39.766 38.7428L39.833 38.6618L39.8986 38.5838L39.9614 38.5089L40.0173 38.4337L40.0675 38.3648L40.115 38.2928L40.5784 39.9971H43.5026V28.0041H39.8484Z" fill="#FFFF01"/>
<path fill-rule="evenodd" clip-rule="evenodd" d="M11.1046 23.9927V27.9985H9.42285V30.7321H11.1046V35.6104L11.1076 35.7605L11.1105 35.9075L11.1136 36.0544L11.1194 36.1955L11.1284 36.3366L11.1402 36.4745L11.1521 36.6095L11.1669 36.7446L11.1817 36.8735L11.1995 37.0026L11.2203 37.1287L11.2441 37.2517L11.2678 37.3717L11.2945 37.4917L11.3211 37.6057L11.3508 37.7197L11.3834 37.8307L11.419 37.9387L11.4546 38.0438L11.4932 38.1457L11.5347 38.2478L11.5763 38.3438L11.6207 38.4399L11.6681 38.5298L11.7156 38.6199L11.7661 38.7069L11.8194 38.7909L11.8758 38.8749L11.9322 38.953L11.9915 39.0279L12.0538 39.1029L12.116 39.172L12.1753 39.232L12.2347 39.292L12.2969 39.349L12.3593 39.4059L12.4274 39.46L12.4957 39.5139L12.5698 39.568L12.644 39.619L12.7182 39.67L12.7983 39.718L12.8783 39.763L12.9613 39.811L13.0474 39.8531L13.1334 39.895L13.2254 39.9371L13.3143 39.9731L13.4092 40.0121L13.5041 40.0451L13.602 40.078L13.7 40.1081L13.8007 40.138L13.9046 40.162L14.0083 40.1861L14.1158 40.2071L14.2218 40.2281L14.3321 40.2461L14.441 40.2581L14.554 40.2701L14.6671 40.2821L14.7829 40.2881L14.8988 40.2911L15.0174 40.2941L15.2128 40.2911L15.3929 40.2852L15.5632 40.2761L15.7167 40.2641L15.8619 40.2492L15.9959 40.2311L16.1229 40.2101L16.2387 40.1861L16.3518 40.162L16.4551 40.1351L16.5528 40.1051L16.6505 40.0751L16.8347 40.0091L17.0162 39.9401V37.1527L16.9687 37.1706L16.9059 37.1887L16.832 37.2066L16.7398 37.2216L16.6365 37.2367L16.5207 37.2456L16.3965 37.2546L16.2625 37.2576L16.1438 37.2546L16.0336 37.2487L15.9275 37.2367L15.827 37.2186L15.7321 37.1976L15.6427 37.1736L15.5562 37.1437L15.4766 37.1076L15.4027 37.0687L15.3315 37.0266L15.2631 36.9756L15.2031 36.9247L15.1445 36.8676L15.0914 36.8076L15.0412 36.7415L14.9965 36.6695L14.9546 36.5975L14.9155 36.5166L14.8806 36.4355L14.8471 36.3486L14.8206 36.2555L14.7941 36.1625L14.7732 36.0605L14.7522 35.9584L14.7383 35.8504L14.7229 35.7365L14.7118 35.6224L14.702 35.5024L14.6964 35.3764L14.6908 35.2503L14.688 35.1183V34.9833V30.7321H16.9771V27.9985H14.688V23.9927H11.1046Z" fill="#FFFF01"/>
<path fill-rule="evenodd" clip-rule="evenodd" d="M38.4876 23.9899L36.2627 27.2247H38.8365L41.9728 23.9899H38.4876Z" fill="#FFFF01"/>
</svg>
